<svg width="20" height="20" viewBox="0 0 20 20" fill="none" xmlns="http://www.w3.org/2000/svg">
<path d="M7.49984 18.3332H12.4998C16.6665 18.3332 18.3332 16.6665 18.3332 12.4998V7.49984C18.3332 3.33317 16.6665 1.6665 12.4998 1.6665H7.49984C3.33317 1.6665 1.6665 3.33317 1.6665 7.49984V12.4998C1.6665 16.6665 3.33317 18.3332 7.49984 18.3332Z" stroke="#777E90" stroke-width="1.5" stroke-linecap="round" stroke-linejoin="round"/>
<path d="M12.9167 15.4168C13.8333 15.4168 14.5833 14.6668 14.5833 13.7502V6.25016C14.5833 5.3335 13.8333 4.5835 12.9167 4.5835C12 4.5835 11.25 5.3335 11.25 6.25016V13.7502C11.25 14.6668 11.9917 15.4168 12.9167 15.4168Z" stroke="#777E90" stroke-width="1.5" stroke-linecap="round" stroke-linejoin="round"/>
<path d="M7.08317 15.4165C7.99984 15.4165 8.74984 14.6665 8.74984 13.7498V10.8332C8.74984 9.9165 7.99984 9.1665 7.08317 9.1665C6.1665 9.1665 5.4165 9.9165 5.4165 10.8332V13.7498C5.4165 14.6665 6.15817 15.4165 7.08317 15.4165Z" stroke="#777E90" stroke-width="1.5" stroke-linecap="round" stroke-linejoin="round"/>
</svg>
